# xmcd
# Track frame offsets:
# 150
# 16990
# 34360
# 50532
# 65255
# 80033
# 97487
# 113435
# 129440
# 147144
# 164849
# 177593
#
# Disc length: 2589 seconds
# Revision: 0
# Processed by: cddbd v1.4PL0 Copyright (c) Steve Scherf et al.
# Submitted via: VisiTrax 2.9.5.180 - For more info visit www.synapsa.com
#
DISCID=ad0a1b0c
DTITLE=Kristyn Smyth - Got a little devil in me
DYEAR=2000
DGENRE=
TTITLE0=The heart of Dixie
TTITLE1=The likes of you
TTITLE2=Strong as an oak
TTITLE3=Never gonna leave to gone
TTITLE4=Where are you boy
TTITLE5=Love takes time
TTITLE6=Got a little devil in me
TTITLE7=Bittersweet
TTITLE8=I might feel bad, but boy do I look good
TTITLE9=Small talk
TTITLE10=It just happened
TTITLE11=Where do you go
EXTD=
EXTT0=
EXTT1=
EXTT2=
EXTT3=
EXTT4=
EXTT5=
EXTT6=
EXTT7=
EXTT8=
EXTT9=
EXTT10=
EXTT11=
PLAYORDER=
